<svg width="92" height="78" viewBox="0 0 92 78" fill="none" xmlns="http://www.w3.org/2000/svg">
<path d="M91.0249 77.1001L83.9349 72.6001C84.6149 65.0601 85.2849 53.8101 85.0649 44.1301C84.8449 29.7301 79.7749 25.0001 69.8749 25.0001C63.1249 25.0001 55.6949 31.8601 52.4349 34.5601C50.4049 27.7001 45.9049 25.0001 38.4849 25.0001C32.9949 25.0001 27.1749 30.0301 23.7549 32.9701C23.7749 33.4401 23.7849 33.9301 23.8049 34.4401C25.7649 33.8101 28.3849 33.1001 31.5149 33.1001C37.8149 33.1001 39.0549 36.2501 39.0549 47.1601C39.0549 55.3701 38.7149 66.0601 38.3749 72.5901L33.0849 77.0901C32.6349 77.5401 32.5249 77.9901 33.0849 77.9901H58.6249C59.2949 77.9901 59.2949 77.5401 58.6249 77.0901L52.6649 72.5901C53.2249 65.0501 53.9049 53.9101 53.7949 44.3501C53.6849 40.6401 53.3449 37.6001 52.6649 35.0101C54.8049 34.2201 58.0649 33.1001 62.9049 33.1001C69.2049 33.2101 70.3349 36.3601 70.3349 47.2801C70.3349 55.3801 69.9949 66.0701 69.6549 72.6001L63.9149 77.1001C63.3549 77.5501 63.3549 78.0001 63.9149 78.0001H91.0349C91.5949 78.0001 91.5949 77.4401 91.0349 77.1001H91.0249Z" fill="#0B1120"/>
<path d="M21.9249 47.9601C21.9249 56.6201 21.7049 66.5301 21.5849 72.6001L28.2249 77.1001C28.7849 77.4401 28.7849 78.0001 28.2249 78.0001H1.22488C0.544876 78.0001 0.664876 77.5501 1.22488 77.1001L7.75487 72.6001C7.64487 67.7601 7.41487 60.2201 7.41487 52.2301C7.41487 43.1201 7.64487 37.0401 7.75487 32.4301L0.324876 27.9301C-0.125124 27.5901 -0.125125 27.0301 0.434875 26.9201C1.78487 26.7001 14.2749 25.9101 21.1349 25.6801C21.8049 29.9601 21.9249 35.9201 21.9249 47.9601Z" fill="#0B1120"/>
<path d="M7.06485 6.46007C13.6249 6.43007 19.0349 11.6101 19.6849 18.1101C21.6149 15.9901 22.6949 13.0701 22.4349 9.89007C21.9749 4.39007 17.4449 -0.0199322 11.9049 6.77586e-05C7.01485 0.0200678 3.03485 3.28007 1.72485 7.66007C3.34485 6.90007 5.14485 6.46007 7.06485 6.45007V6.46007Z" fill="#0B1120"/>
</svg>
