<svg width="467" height="78" viewBox="0 0 467 78" fill="none" xmlns="http://www.w3.org/2000/svg">
<g clip-path="url(#clip0_636_71)">
<path d="M20.78 48.43C20.78 56.59 20.57 65.92 20.46 71.64L26.71 75.88C27.24 76.2 27.24 76.73 26.71 76.73H1.28001C0.64001 76.73 0.75001 76.31 1.28001 75.88L7.43001 71.64C7.32001 67.08 7.11001 59.98 7.11001 52.46C7.11001 43.88 7.32001 38.15 7.43001 33.81L0.43001 29.57C0.0100102 29.25 0.0100103 28.72 0.54001 28.62C1.81001 28.41 13.58 27.67 20.04 27.45C20.68 31.48 20.78 37.09 20.78 48.43Z" fill="white"/>
<path d="M54.97 70.79C51.37 74.08 46.39 77.68 41.4 77.68C34.09 77.68 29.32 73.02 29.11 65.28C29 58.92 31.44 54.68 35.05 52.14C38.87 50.87 47.13 50.34 54.76 50.23V45.04C54.76 34.97 52.43 33.59 46.92 33.59C42.15 33.59 36.64 34.54 33.04 35.92C32.72 36.03 32.19 35.71 32.83 35.07C35.9 32.21 43.64 26.38 51.38 26.38C61.34 26.38 67.81 30.73 68.23 43.55C68.55 53.51 68.12 64.11 67.7 69.3L68.65 70.57L75.65 71.84C76.18 71.84 76.07 72.26 75.76 72.48C73 74.6 67.71 77.57 62.51 77.57C58.27 77.15 55.83 74.28 54.99 70.79H54.97ZM54.87 70.26C54.45 65.81 54.66 57.44 54.66 50.97C51.48 51.5 47.35 52.35 44.38 53.62C42.79 55.21 42.05 59.02 42.05 62.95C42.16 68.67 44.17 71.53 48.51 71.64C50.74 71.75 52.96 71.22 54.87 70.26Z" fill="white"/>
<path d="M101.25 76.73H76.88C76.24 76.73 76.24 76.31 76.88 75.88L83.03 71.64C82.82 67.08 82.61 60.3 82.61 52.99C82.61 44.09 82.82 38.15 83.03 33.81L76.04 29.36C75.51 29.15 75.51 28.72 76.15 28.62C77.74 28.3 88.97 27.56 95.33 27.56C95.86 29.47 96.07 31.48 96.28 35.72C99.57 33.07 106.45 26.82 112.71 26.82C122.14 26.82 126.91 31.27 127.12 44.84C127.33 53.95 126.59 64.55 126.06 71.65L132.63 75.89C133.16 76.21 133.27 76.74 132.63 76.74H106.98C106.56 76.74 106.56 76.32 106.98 75.89L112.49 71.65C112.91 65.5 113.23 55.44 113.23 47.8C113.23 37.52 112.17 34.55 106.24 34.45C101.68 34.45 98.4 35.62 96.28 36.36C96.39 39.01 96.39 42.4 96.39 47.06C96.39 53.31 96.18 64.97 95.97 71.65L101.37 75.89C101.79 76.21 101.79 76.74 101.26 76.74L101.25 76.73Z" fill="white"/>
<path d="M180.93 76.73H156.77C156.13 76.73 156.13 76.31 156.77 75.88L162.92 71.64C162.71 67.08 162.5 60.3 162.5 52.99C162.5 44.09 162.71 38.15 162.92 33.81L155.93 29.36C155.4 29.15 155.4 28.72 156.04 28.62C157.63 28.3 168.86 27.56 175.22 27.56C175.75 29.36 175.96 31.38 176.17 35.4C179.03 33.07 185.39 26.82 191.32 26.82C198.31 26.82 202.55 29.36 204.46 35.83C207.53 33.29 214.53 26.82 220.89 26.82C230.22 26.82 234.98 31.27 235.2 44.84C235.41 53.95 234.78 64.55 234.14 71.65L240.82 75.89C241.35 76.21 241.35 76.74 240.82 76.74H215.28C214.75 76.74 214.75 76.32 215.28 75.89L220.68 71.65C221 65.5 221.32 55.44 221.32 47.8C221.32 37.52 220.26 34.55 214.33 34.45C209.77 34.45 206.7 35.51 204.69 36.25C205.33 38.69 205.64 41.55 205.75 45.05C205.86 54.06 205.22 64.55 204.69 71.65L210.31 75.89C210.95 76.31 210.95 76.74 210.31 76.74H186.25C185.72 76.74 185.83 76.32 186.25 75.89L191.23 71.65C191.55 65.5 191.87 55.44 191.87 47.7C191.87 37.42 190.7 34.45 184.77 34.45C181.06 34.45 178.09 35.51 176.19 36.15C176.3 38.91 176.3 42.3 176.3 47.07C176.3 53.32 176.09 64.98 175.88 71.66L181.07 75.9C181.49 76.22 181.49 76.75 180.96 76.75L180.93 76.73Z" fill="white"/>
<path d="M268.07 70.79C264.47 74.08 259.49 77.68 254.5 77.68C247.19 77.68 242.42 73.02 242.21 65.28C242.1 58.92 244.54 54.68 248.15 52.14C251.97 50.87 260.23 50.34 267.86 50.23V45.04C267.86 34.97 265.53 33.59 260.02 33.59C255.25 33.59 249.74 34.54 246.14 35.92C245.82 36.03 245.29 35.71 245.93 35.07C249 32.21 256.74 26.38 264.48 26.38C274.44 26.38 280.91 30.73 281.33 43.55C281.65 53.51 281.22 64.11 280.8 69.3L281.75 70.57L288.75 71.84C289.28 71.84 289.17 72.26 288.86 72.48C286.1 74.6 280.81 77.57 275.61 77.57C271.37 77.15 268.93 74.28 268.09 70.79H268.07ZM267.97 70.26C267.55 65.81 267.76 57.44 267.76 50.97C264.58 51.5 260.45 52.35 257.48 53.62C255.89 55.21 255.15 59.02 255.15 62.95C255.26 68.67 257.27 71.53 261.61 71.64C263.84 71.75 266.06 71.22 267.97 70.26Z" fill="white"/>
<path d="M317.53 76.73H289.98C289.24 76.73 289.34 76.31 289.98 75.88L296.13 71.64C295.92 67.08 295.71 59.88 295.71 52.56C295.71 43.66 295.92 38.15 296.13 33.8L289.14 29.45C288.61 29.13 288.61 28.71 289.25 28.6C290.84 28.39 302.07 27.65 308.43 27.54C308.96 29.66 309.28 31.99 309.38 36.97C313.09 33.15 318.81 26.69 324.22 26.58C328.46 26.37 329.62 28.06 329.52 32.41C329.52 36.76 327.72 40.15 326.76 41.21C326.34 41.32 325.91 41.32 325.59 41.21C322.52 39.51 317.22 35.28 315.2 35.06C312.97 35.38 310.64 36.86 309.37 37.6C309.48 40.04 309.48 43.22 309.48 47.14C309.48 53.39 309.27 64.84 309.06 71.52L317.54 75.87C318.18 76.08 318.18 76.72 317.54 76.72L317.53 76.73Z" fill="white"/>
<path d="M370.39 77.58C366.26 77.37 363.93 74.93 362.87 70.48C359.8 73.45 354.39 77.58 348.99 77.58C337.86 77.58 329.7 70.59 329.7 53.95C329.59 34.56 340.83 26.82 353.33 26.82C357.36 26.82 360.43 27.35 362.66 28.62C362.77 20.57 362.87 11.24 363.08 7.21001L355.77 3.08001C355.24 2.76001 355.24 2.23001 355.66 2.13001C358.63 1.60001 369.12 0.22001 375.27 0.0100098C376.12 3.08001 376.22 13.47 376.22 35.09C376.22 49.71 375.8 62.22 375.37 69.32L376.22 70.59L383.53 71.86C384.06 71.86 383.95 72.18 383.64 72.5C381.2 74.51 375.37 77.59 370.39 77.59V77.58ZM354.7 71.22C358.2 71.22 361.38 70.27 362.75 69.84C362.22 64.12 362.54 48.75 362.64 34.97C361.05 31.79 358.08 29.46 354.59 28.72C351.94 28.19 349.93 28.19 348.02 28.4C345.58 32.43 343.67 41.01 343.67 52.25C343.67 66.03 347.17 71.22 354.69 71.22H354.7Z" fill="white"/>
<path d="M407.28 26.18C420.42 26.18 426.14 35.93 425.61 48.22C425.4 48.64 424.87 49.28 424.44 49.49L397.52 48.96C397.94 63.69 401.02 70.37 411.72 70.37C417.12 70.37 421.36 69.31 424.76 66.87C425.18 66.66 425.82 66.98 425.29 67.82C421.16 73.76 414.27 77.99 407.49 77.99C392.97 77.99 383.43 70.78 383.43 52.56C383.43 34.34 394.98 26.17 407.28 26.17V26.18ZM412.79 46.95C413 45.36 413 42.92 413 41.33C412.89 32 411.2 28.29 406.32 27.76C404.41 27.55 403.14 27.65 401.66 27.87C399.65 30.73 397.63 39.21 397.63 48.11L412.78 46.94L412.79 46.95Z" fill="white"/>
<path d="M454.73 76.73H427.18C426.44 76.73 426.54 76.31 427.18 75.88L433.33 71.64C433.12 67.08 432.91 59.88 432.91 52.56C432.91 43.66 433.12 38.15 433.33 33.8L426.34 29.45C425.81 29.13 425.81 28.71 426.45 28.6C428.04 28.39 439.27 27.65 445.63 27.54C446.16 29.66 446.48 31.99 446.58 36.97C450.29 33.15 456.01 26.69 461.42 26.58C465.66 26.37 466.82 28.06 466.72 32.41C466.72 36.76 464.92 40.15 463.96 41.21C463.54 41.32 463.11 41.32 462.79 41.21C459.72 39.51 454.42 35.28 452.4 35.06C450.17 35.38 447.84 36.86 446.57 37.6C446.68 40.04 446.68 43.22 446.68 47.14C446.68 53.39 446.47 64.84 446.26 71.52L454.74 75.87C455.38 76.08 455.38 76.72 454.74 76.72L454.73 76.73Z" fill="white"/>
<path d="M20.68 48.39C20.68 56.56 20.47 65.9 20.36 71.63L26.62 75.88C27.15 76.2 27.15 76.73 26.62 76.73H1.16002C0.520015 76.73 0.630015 76.31 1.16002 75.88L7.31002 71.63C7.20002 67.07 6.99002 59.96 6.99002 52.42C6.99002 43.82 7.20002 38.09 7.31002 33.74L0.310015 29.5C-0.109985 29.18 -0.109985 28.65 0.420015 28.54C1.69002 28.33 13.47 27.59 19.95 27.37C20.59 31.4 20.69 37.03 20.69 48.38L20.68 48.39Z" fill="white"/>
<path d="M6.67 9.24998C12.86 9.21998 17.96 14.1 18.57 20.24C20.39 18.24 21.41 15.48 21.16 12.49C20.73 7.29998 16.45 3.13998 11.23 3.15998C6.62 3.17998 2.87 6.25998 1.63 10.39C3.15 9.66998 4.85 9.25998 6.67 9.24998Z" fill="white"/>
</g>
<defs>
<clipPath id="clip0_636_71">
<rect width="466.72" height="78" fill="white"/>
</clipPath>
</defs>
</svg>
